P2
50 100
65535
49087 32024 29555 32639 32639 32639 32639 32639 32639 32639 32639 32639 32639 32639 32639 32639 32639 32639 32639 32639 32639 32639 32639 32639 32639 49087 34689 32639 32639 32639 32639 32639 32639 32639 32639 32639 32639 32639 32639 32639 32639 32639 32639 32639 32639 32639 32639 32639 32639 32639 
42143 42143 29555 32639 32639 32639 32639 32639 32639 32639 32639 32639 32639 32639 32639 32639 32639 32639 32639 32639 32639 32639 32639 32639 32639 42904 42904 32639 32639 32639 32639 32639 32639 32639 32639 32639 32639 32639 32639 32639 32639 32639 32639 32639 32639 32639 32639 32639 32639 32639 
32024 49087 32024 32639 32639 32639 32639 32639 32639 32639 32639 32639 32639 32639 32639 32639 32639 32639 32639 32639 32639 32639 32639 32639 32639 34689 49087 34689 32639 32639 32639 32639 32639 32639 32639 32639 32639 32639 32639 32639 32639 32639 32639 32639 32639 32639 32639 32639 32639 32639 
29555 42143 42143 32639 32639 32639 32639 32639 32639 32639 32639 32639 32639 32639 32639 32639 32639 32639 32639 32639 32639 32639 32639 32639 32639 32639 42904 42904 32639 32639 32639 32639 32639 32639 32639 32639 32639 32639 32639 32639 32639 32639 32639 32639 32639 32639 32639 32639 32639 32639 
29555 32024 49087 34689 32639 32639 32639 32639 32639 32639 32639 32639 32639 32639 32639 32639 32639 32639 32639 32639 32639 32639 32639 32639 32639 32639 34689 49087 34689 32639 32639 32639 32639 32639 32639 32639 32639 32639 32639 32639 32639 32639 32639 32639 32639 32639 32639 32639 32639 32639 
29555 29555 42143 42904 32639 32639 32639 32639 32639 32639 32639 32639 32639 32639 32639 32639 32639 32639 32639 32639 32639 32639 32639 32639 32639 32639 32639 42904 42904 32639 32639 32639 32639 32639 32639 32639 32639 32639 32639 32639 32639 32639 32639 32639 32639 32639 32639 32639 32639 32639 
29555 29555 32024 49087 34689 32639 32639 32639 32639 32639 32639 32639 32639 32639 32639 32639 32639 32639 32639 32639 32639 32639 32639 32639 32639 32639 32639 34689 49087 34689 32639 32639 32639 32639 32639 32639 32639 32639 32639 32639 32639 32639 32639 32639 32639 32639 32639 32639 32639 32639 
29555 29555 29555 42904 42904 32639 32639 32639 32639 32639 32639 32639 32639 32639 32639 32639 32639 32639 32639 32639 32639 32639 32639 32639 32639 32639 32639 32639 42904 42904 32639 32639 32639 32639 32639 32639 32639 32639 32639 32639 32639 32639 32639 32639 32639 32639 32639 32639 32639 32639 
29555 29555 29555 34689 49087 34689 32639 32639 32639 32639 32639 32639 32639 32639 32639 32639 32639 32639 32639 32639 32639 32639 32639 32639 32639 32639 32639 32639 34689 49087 34689 32639 32639 32639 32639 32639 32639 32639 32639 32639 32639 32639 32639 32639 32639 32639 32639 32639 32639 32639 
29555 29555 29555 32639 42904 42904 32639 32639 32639 32639 32639 32639 32639 32639 32639 32639 32639 32639 32639 32639 32639 32639 32639 32639 32639 32639 32639 32639 32639 42904 42904 32639 32639 32639 32639 32639 32639 32639 32639 32639 32639 32639 32639 32639 32639 32639 32639 32639 32639 32639 
29555 29555 29555 32639 34689 49087 34689 32639 32639 32639 32639 32639 32639 32639 32639 32639 32639 32639 32639 32639 32639 32639 32639 32639 32639 32639 32639 32639 32639 34689 49087 34689 32639 32639 32639 32639 32639 32639 32639 32639 32639 32639 32639 32639 32639 32639 32639 32639 32639 32639 
29555 29555 29555 32639 32639 42904 42904 32639 32639 32639 32639 32639 32639 32639 32639 32639 32639 32639 32639 32639 32639 32639 32639 32639 32639 32639 32639 32639 32639 32639 42904 42904 32639 32639 32639 32639 32639 32639 32639 32639 32639 32639 32639 32639 32639 32639 32639 32639 32639 32639 
29555 29555 29555 32639 32639 34689 49087 34689 32639 32639 32639 32639 32639 32639 32639 32639 32639 32639 32639 32639 32639 32639 32639 32639 32639 32639 32639 32639 32639 32639 34689 49087 34689 32639 32639 32639 32639 32639 32639 32639 32639 32639 32639 32639 32639 32639 32639 32639 32639 32639 
29555 29555 29555 32639 32639 32639 42904 42904 32639 32639 32639 32639 32639 32639 32639 32639 32639 32639 32639 32639 32639 32639 32639 32639 32639 32639 32639 32639 32639 32639 32639 42904 42904 32639 32639 32639 32639 32639 32639 32639 32639 32639 32639 32639 32639 32639 32639 32639 32639 32639 
29555 29555 29555 32639 32639 32639 34689 49087 34689 32639 32639 32639 32639 32639 32639 32639 32639 32639 32639 32639 32639 32639 32639 32639 32639 32639 32639 32639 32639 32639 32639 34689 49087 34689 32639 32639 32639 32639 32639 32639 32639 32639 32639 32639 32639 32639 32639 32639 32639 32639 
29555 29555 29555 32639 32639 32639 32639 42904 42904 32639 32639 32639 32639 32639 32639 32639 32639 32639 32639 32639 32639 32639 32639 32639 32639 32639 32639 32639 32639 32639 32639 32639 42904 42904 32639 32639 32639 32639 32639 32639 32639 32639 32639 32639 32639 32639 32639 32639 32639 32639 
29555 29555 29555 32639 32639 32639 32639 34689 49087 34689 32639 32639 32639 32639 32639 32639 32639 32639 32639 32639 32639 32639 32639 32639 32639 32639 32639 32639 32639 32639 32639 32639 34689 49087 34689 32639 32639 32639 32639 32639 32639 32639 32639 32639 32639 32639 32639 32639 32639 32639 
29555 29555 29555 32639 32639 32639 32639 32639 42904 42904 32639 32639 32639 32639 32639 32639 32639 32639 32639 32639 32639 32639 32639 32639 32639 32639 32639 32639 32639 32639 32639 32639 32639 42904 42904 32639 32639 32639 32639 32639 32639 32639 32639 32639 32639 32639 32639 32639 32639 32639 
29555 29555 29555 32639 32639 32639 32639 32639 34689 49087 34689 32639 32639 32639 32639 32639 32639 32639 32639 32639 32639 32639 32639 32639 32639 32639 32639 32639 32639 32639 32639 32639 32639 34689 49087 34689 32639 32639 32639 32639 32639 32639 32639 32639 32639 32639 32639 32639 32639 32639 
29555 29555 29555 32639 32639 32639 32639 32639 32639 42904 42904 32639 32639 32639 32639 32639 32639 32639 32639 32639 32639 32639 32639 32639 32639 32639 32639 32639 32639 32639 32639 32639 32639 32639 42904 42904 32639 32639 32639 32639 32639 32639 32639 32639 32639 32639 32639 32639 32639 32639 
29555 29555 29555 32639 32639 32639 32639 32639 32639 34689 49087 34689 32639 32639 32639 32639 32639 32639 32639 32639 32639 32639 32639 32639 32639 32639 32639 32639 32639 32639 32639 32639 32639 32639 34689 49087 34689 32639 32639 32639 32639 32639 32639 32639 32639 32639 32639 32639 32639 32639 
29555 29555 29555 32639 32639 32639 32639 32639 32639 32639 42904 42904 32639 32639 32639 32639 32639 32639 32639 32639 32639 32639 32639 32639 32639 32639 32639 32639 32639 32639 32639 32639 32639 32639 32639 42904 42904 32639 32639 32639 32639 32639 32639 32639 32639 32639 32639 32639 32639 32639 
29555 29555 29555 32639 32639 32639 32639 32639 32639 32639 34689 49087 34689 32639 32639 32639 32639 32639 32639 32639 32639 32639 32639 32639 32639 32639 32639 32639 32639 32639 32639 32639 32639 32639 32639 34689 49087 34689 32639 32639 32639 32639 32639 32639 32639 32639 32639 32639 32639 32639 
29555 29555 29555 32639 32639 32639 32639 32639 32639 32639 32639 42904 42904 32639 32639 32639 32639 32639 32639 32639 32639 32639 32639 32639 32639 32639 32639 32639 32639 32639 32639 32639 32639 32639 32639 32639 42904 42904 32639 32639 32639 32639 32639 32639 32639 32639 32639 32639 32639 32639 
29555 29555 29555 32639 32639 32639 32639 32639 32639 32639 32639 34689 49087 34689 32639 32639 32639 32639 32639 32639 32639 32639 32639 32639 32639 32639 32639 32639 32639 32639 32639 32639 32639 32639 32639 32639 34689 49087 34689 32639 32639 32639 32639 32639 32639 32639 32639 32639 32639 32639 
29555 29555 29555 32639 32639 32639 32639 32639 32639 32639 32639 32639 42904 42904 32639 32639 32639 32639 32639 32639 32639 32639 32639 32639 32639 32639 32639 32639 32639 32639 32639 32639 32639 32639 32639 32639 32639 42904 42904 32639 32639 32639 32639 32639 32639 32639 32639 32639 32639 32639 
29555 29555 29555 32639 32639 32639 32639 32639 32639 32639 32639 32639 34689 49087 34689 32639 32639 32639 32639 32639 32639 32639 32639 32639 32639 32639 32639 32639 32639 32639 32639 32639 32639 32639 32639 32639 32639 34689 49087 34689 32639 32639 32639 32639 32639 32639 32639 32639 32639 32639 
29555 29555 29555 32639 32639 32639 32639 32639 32639 32639 32639 32639 32639 42904 42904 32639 32639 32639 32639 32639 32639 32639 32639 32639 32639 32639 32639 32639 32639 32639 32639 32639 32639 32639 32639 32639 32639 32639 42904 42904 32639 32639 32639 32639 32639 32639 32639 32639 32639 32639 
29555 29555 29555 32639 32639 32639 32639 32639 32639 32639 32639 32639 32639 34689 49087 34689 32639 32639 32639 32639 32639 32639 32639 32639 32639 32639 32639 32639 32639 32639 32639 32639 32639 32639 32639 32639 32639 32639 34689 49087 34689 32639 32639 32639 32639 32639 32639 32639 32639 32639 
29555 29555 29555 32639 32639 32639 32639 32639 32639 32639 32639 32639 32639 32639 42904 42904 32639 32639 32639 32639 32639 32639 32639 32639 32639 32639 32639 32639 32639 32639 32639 32639 32639 32639 32639 32639 32639 32639 32639 42904 42904 32639 32639 32639 32639 32639 32639 32639 32639 32639 
29555 29555 29555 32639 32639 32639 32639 32639 32639 32639 32639 32639 32639 32639 34689 49087 34689 32639 32639 32639 32639 32639 32639 32639 32639 32639 32639 32639 32639 32639 32639 32639 32639 32639 32639 32639 32639 32639 32639 34689 49087 34689 32639 32639 32639 32639 32639 32639 32639 32639 
29555 29555 29555 32639 32639 32639 32639 32639 32639 32639 32639 32639 32639 32639 32639 42904 42904 32639 32639 32639 32639 32639 32639 32639 32639 32639 32639 32639 32639 32639 32639 32639 32639 32639 32639 32639 32639 32639 32639 32639 42904 42904 32639 32639 32639 32639 32639 32639 32639 32639 
29555 29555 29555 32639 32639 32639 32639 32639 32639 32639 32639 32639 32639 32639 32639 34689 49087 34689 32639 32639 32639 32639 32639 32639 32639 32639 32639 32639 32639 32639 32639 32639 32639 32639 32639 32639 32639 32639 32639 32639 34689 49087 34689 32639 32639 32639 32639 32639 32639 32639 
29555 29555 29555 32639 32639 32639 32639 32639 32639 32639 32639 32639 32639 32639 32639 32639 42904 42904 32639 32639 32639 32639 32639 32639 32639 32639 32639 32639 32639 32639 32639 32639 32639 32639 32639 32639 32639 32639 32639 32639 32639 42904 42904 32639 32639 32639 32639 32639 32639 32639 
29555 29555 29555 32639 32639 32639 32639 32639 32639 32639 32639 32639 32639 32639 32639 32639 34689 49087 34689 32639 32639 32639 32639 32639 32639 32639 32639 32639 32639 32639 32639 32639 32639 32639 32639 32639 32639 32639 32639 32639 32639 34689 49087 34689 32639 32639 32639 32639 32639 32639 
29555 29555 29555 32639 32639 32639 32639 32639 32639 32639 32639 32639 32639 32639 32639 32639 32639 42904 42904 32639 32639 32639 32639 32639 32639 32639 32639 32639 32639 32639 32639 32639 32639 32639 32639 32639 32639 32639 32639 32639 32639 32639 42904 42904 32639 32639 32639 32639 32639 32639 
29555 29555 29555 32639 32639 32639 32639 32639 32639 32639 32639 32639 32639 32639 32639 32639 32639 34689 49087 34689 32639 32639 32639 32639 32639 32639 32639 32639 32639 32639 32639 32639 32639 32639 32639 32639 32639 32639 32639 32639 32639 32639 34689 49087 34689 32639 32639 32639 32639 32639 
29555 29555 29555 32639 32639 32639 32639 32639 32639 32639 32639 32639 32639 32639 32639 32639 32639 32639 42904 42904 32639 32639 32639 32639 32639 32639 32639 32639 32639 32639 32639 32639 32639 32639 32639 32639 32639 32639 32639 32639 32639 32639 32639 42904 42904 32639 32639 32639 32639 32639 
29555 29555 29555 32639 32639 32639 32639 32639 32639 32639 32639 32639 32639 32639 32639 32639 32639 32639 34689 49087 34689 32639 32639 32639 32639 32639 32639 32639 32639 32639 32639 32639 32639 32639 32639 32639 32639 32639 32639 32639 32639 32639 32639 34689 49087 34689 32639 32639 32639 32639 
29555 29555 29555 32639 32639 32639 32639 32639 32639 32639 32639 32639 32639 32639 32639 32639 32639 32639 32639 42904 42904 34094 39061 41391 39067 34126 32639 32639 32639 32639 32639 32639 32639 32639 32639 32639 32639 32639 32639 32639 32639 32639 32639 32639 42904 42904 32639 32639 32639 32639 
29555 29555 29555 32639 32639 32639 32639 32639 32639 32639 32639 32639 32639 32639 32639 32639 32639 32639 32639 35364 50517 49087 49719 51990 49552 49087 46071 33391 32639 32639 32639 32639 32639 32639 32639 32639 32639 32639 32639 32639 32639 32639 32639 32639 34689 49087 34689 32639 32639 32639 
29555 29555 29555 32639 32639 32639 32639 32639 32639 32639 32639 32639 32639 32639 32639 32639 32639 32639 33523 48975 51966 60541 62194 62194 62194 60600 52064 49029 33436 32639 32639 32639 32639 32639 32639 32639 32639 32639 32639 32639 32639 32639 32639 32639 32639 42904 42904 32639 32639 32639 
29555 29555 29555 32639 32639 32639 32639 32639 32639 32639 32639 32639 32639 32639 32639 32639 32639 32639 46248 52102 61990 62194 62194 62194 62194 62194 62015 52302 46051 32639 32639 32639 32639 32639 32639 32639 32639 32639 32639 32639 32639 32639 32639 32639 32639 34689 49087 34689 32639 32639 
29555 29555 29555 32639 32639 32639 32639 32639 32639 32639 32639 32639 32639 32639 32639 32639 32639 34225 49087 60563 62194 62194 62194 62194 62194 62194 62194 60655 49087 34261 32639 32639 32639 32639 32639 32639 32639 32639 32639 32639 32639 32639 32639 32639 32639 32639 42904 42904 32639 32639 
29555 29555 29555 32639 32639 32639 32639 32639 32639 32639 32639 32639 32639 32639 32639 32639 32639 39418 49823 62194 62194 62194 62194 62194 62194 62194 62194 62194 49583 39295 32639 32639 32639 32639 32639 32639 32639 32639 32639 32639 32639 32639 32639 32639 32639 32639 34689 49087 34689 32639 
29555 29555 29555 32639 32639 32639 32639 32639 32639 32639 32639 32639 32639 32639 32639 32639 32639 41772 52243 62194 62194 62194 62194 62194 62194 62194 62194 62194 52361 41891 32639 32639 32639 32639 32639 32639 32639 32639 32639 32639 32639 32639 32639 32639 32639 32639 32639 42904 42904 32639 
29555 29555 29555 32639 32639 32639 32639 32639 32639 32639 32639 32639 32639 32639 32639 32639 32639 39439 49639 62193 62194 62194 62194 62194 62194 62194 62194 62193 49719 39535 32639 32639 32639 32639 32639 32639 32639 32639 32639 32639 32639 32639 32639 32639 32639 32639 32639 34689 49087 34689 
29555 29555 29555 32639 32639 32639 32639 32639 32639 32639 32639 32639 32639 32639 32639 32639 32639 34322 49087 60617 62194 62194 62194 62194 62194 62194 62194 60586 49087 34298 32639 32639 32639 32639 32639 32639 32639 32639 32639 32639 32639 32639 32639 32639 32639 32639 32639 32639 42904 42904 
29555 29555 29555 32639 32639 32639 32639 32639 32639 32639 32639 32639 32639 32639 32639 32639 32639 32639 46091 52296 62004 62194 62194 62194 62194 62194 61996 52189 46156 32639 32639 32639 32639 32639 32639 32639 32639 32639 32639 32639 32639 32639 32639 32639 32639 32639 32639 32639 34689 49087 
29555 29555 29555 32639 32639 32639 32639 32639 32639 32639 32639 32639 32639 32639 32639 32639 32639 32639 33469 49007 52010 60573 62194 62194 62194 60553 51977 48989 33510 32639 32639 32639 32639 32639 32639 32639 32639 32639 32639 32639 32639 32639 32639 32639 32639 32639 32639 32639 32639 42904 
49087 32024 29555 32639 32639 32639 32639 32639 32639 32639 32639 32639 32639 32639 32639 32639 32639 32639 32639 33389 46127 49087 49584 51968 49639 49087 46746 33395 32639 32639 32639 32639 32639 32639 32639 32639 32639 32639 32639 32639 32639 32639 32639 32639 32639 32639 32639 32639 32639 34689 
42143 42143 29555 32639 32639 32639 32639 32639 32639 32639 32639 32639 32639 32639 32639 32639 32639 32639 32639 32639 32639 34101 39034 41359 39032 43463 42904 32639 32639 32639 32639 32639 32639 32639 32639 32639 32639 32639 32639 32639 32639 32639 32639 32639 32639 32639 32639 32639 32639 32639 
32024 49087 32024 32639 32639 32639 32639 32639 32639 32639 32639 32639 32639 32639 32639 32639 32639 32639 32639 32639 32639 32639 32639 32639 32639 34689 49087 34689 32639 32639 32639 32639 32639 32639 32639 32639 32639 32639 32639 32639 32639 32639 32639 32639 32639 32639 32639 32639 32639 32639 
29555 42143 42143 32639 32639 32639 32639 32639 32639 32639 32639 32639 32639 32639 32639 32639 32639 32639 32639 32639 32639 32639 32639 32639 32639 32639 42904 42904 32639 32639 32639 32639 32639 32639 32639 32639 32639 32639 32639 32639 32639 32639 32639 32639 32639 32639 32639 32639 32639 32639 
29555 32024 49087 34689 32639 32639 32639 32639 32639 32639 32639 32639 32639 32639 32639 32639 32639 32639 32639 32639 32639 32639 32639 32639 32639 32639 34689 49087 34689 32639 32639 32639 32639 32639 32639 32639 32639 32639 32639 32639 32639 32639 32639 32639 32639 32639 32639 32639 32639 32639 
29555 29555 42143 42904 32639 32639 32639 32639 32639 32639 32639 32639 32639 32639 32639 32639 32639 32639 32639 32639 32639 32639 32639 32639 32639 32639 32639 42904 42904 32639 32639 32639 32639 32639 32639 32639 32639 32639 32639 32639 32639 32639 32639 32639 32639 32639 32639 32639 32639 32639 
29555 29555 32024 49087 34689 32639 32639 32639 32639 32639 32639 32639 32639 32639 32639 32639 32639 32639 32639 32639 32639 32639 32639 32639 32639 32639 32639 34689 49087 34689 32639 32639 32639 32639 32639 32639 32639 32639 32639 32639 32639 32639 32639 32639 32639 32639 32639 32639 32639 32639 
29555 29555 29555 42904 42904 32639 32639 32639 32639 32639 32639 32639 32639 32639 32639 32639 32639 32639 32639 32639 32639 32639 32639 32639 32639 32639 32639 32639 42904 42904 32639 32639 32639 32639 32639 32639 32639 32639 32639 32639 32639 32639 32639 32639 32639 32639 32639 32639 32639 32639 
29555 29555 29555 34689 49087 34689 32639 32639 32639 32639 32639 32639 32639 32639 32639 32639 32639 32639 32639 32639 32639 32639 32639 32639 32639 32639 32639 32639 34689 49087 34689 32639 32639 32639 32639 32639 32639 32639 32639 32639 32639 32639 32639 32639 32639 32639 32639 32639 32639 32639 
29555 29555 29555 32639 42904 42904 32639 32639 32639 32639 32639 32639 32639 32639 32639 32639 32639 32639 32639 32639 32639 32639 32639 32639 32639 32639 32639 32639 32639 42904 42904 32639 32639 32639 32639 32639 32639 32639 32639 32639 32639 32639 32639 32639 32639 32639 32639 32639 32639 32639 
29555 29555 29555 32639 34689 49087 34689 32639 32639 32639 32639 32639 32639 32639 32639 32639 32639 32639 32639 32639 32639 32639 32639 32639 32639 32639 32639 32639 32639 34689 49087 34689 32639 32639 32639 32639 32639 32639 32639 32639 32639 32639 32639 32639 32639 32639 32639 32639 32639 32639 
29555 29555 29555 32639 32639 42904 42904 32639 32639 32639 32639 32639 32639 32639 32639 32639 32639 32639 32639 32639 32639 32639 32639 32639 32639 32639 32639 32639 32639 32639 42904 42904 32639 32639 32639 32639 32639 32639 32639 32639 32639 32639 32639 32639 32639 32639 32639 32639 32639 32639 
29555 29555 29555 32639 32639 34689 49087 34689 32639 32639 32639 32639 32639 32639 32639 32639 32639 32639 32639 32639 32639 32639 32639 32639 32639 32639 32639 32639 32639 32639 34689 49087 34689 32639 32639 32639 32639 32639 32639 32639 32639 32639 32639 32639 32639 32639 32639 32639 32639 32639 
29555 29555 29555 32639 32639 32639 42904 42904 32639 32639 32639 32639 32639 32639 32639 32639 32639 32639 32639 32639 32639 32639 32639 32639 32639 32639 32639 32639 32639 32639 32639 42904 42904 32639 32639 32639 32639 32639 32639 32639 32639 32639 32639 32639 32639 32639 32639 32639 32639 32639 
29555 29555 29555 32639 32639 32639 34689 49087 34689 32639 32639 32639 32639 32639 32639 32639 32639 32639 32639 32639 32639 32639 32639 32639 32639 32639 32639 32639 32639 32639 32639 34689 49087 34689 32639 32639 32639 32639 32639 32639 32639 32639 32639 32639 32639 32639 32639 32639 32639 32639 
29555 29555 29555 32639 32639 32639 32639 42904 42904 32639 32639 32639 32639 32639 32639 32639 32639 32639 32639 32639 32639 32639 32639 32639 32639 32639 32639 32639 32639 32639 32639 32639 42904 42904 32639 32639 32639 32639 32639 32639 32639 32639 32639 32639 32639 32639 32639 32639 32639 32639 
29555 29555 29555 32639 32639 32639 32639 34689 49087 34689 32639 32639 32639 32639 32639 32639 32639 32639 32639 32639 32639 32639 32639 32639 32639 32639 32639 32639 32639 32639 32639 32639 34689 49087 34689 32639 32639 32639 32639 32639 32639 32639 32639 32639 32639 32639 32639 32639 32639 32639 
29555 29555 29555 32639 32639 32639 32639 32639 42904 42904 32639 32639 32639 32639 32639 32639 32639 32639 32639 32639 32639 32639 32639 32639 32639 32639 32639 32639 32639 32639 32639 32639 32639 42904 42904 32639 32639 32639 32639 32639 32639 32639 32639 32639 32639 32639 32639 32639 32639 32639 
29555 29555 29555 32639 32639 32639 32639 32639 34689 49087 34689 32639 32639 32639 32639 32639 32639 32639 32639 32639 32639 32639 32639 32639 32639 32639 32639 32639 32639 32639 32639 32639 32639 34689 49087 34689 32639 32639 32639 32639 32639 32639 32639 32639 32639 32639 32639 32639 32639 32639 
29555 29555 29555 32639 32639 32639 32639 32639 32639 42904 42904 32639 32639 32639 32639 32639 32639 32639 32639 32639 32639 32639 32639 32639 32639 32639 32639 32639 32639 32639 32639 32639 32639 32639 42904 42904 32639 32639 32639 32639 32639 32639 32639 32639 32639 32639 32639 32639 32639 32639 
29555 29555 29555 32639 32639 32639 32639 32639 32639 34689 49087 34689 32639 32639 32639 32639 32639 32639 32639 32639 32639 32639 32639 32639 32639 32639 32639 32639 32639 32639 32639 32639 32639 32639 34689 49087 34689 32639 32639 32639 32639 32639 32639 32639 32639 32639 32639 32639 32639 32639 
29555 29555 29555 32639 32639 32639 32639 32639 32639 32639 42904 42904 32639 32639 32639 32639 32639 32639 32639 32639 32639 32639 32639 32639 32639 32639 32639 32639 32639 32639 32639 32639 32639 32639 32639 42904 42904 32639 32639 32639 32639 32639 32639 32639 32639 32639 32639 32639 32639 32639 
29555 29555 29555 32639 32639 32639 32639 32639 32639 32639 34689 49087 34689 32639 32639 32639 32639 32639 32639 32639 32639 32639 32639 32639 32639 32639 32639 32639 32639 32639 32639 32639 32639 32639 32639 34689 49087 34689 32639 32639 32639 32639 32639 32639 32639 32639 32639 32639 32639 32639 
29555 29555 29555 32639 32639 32639 32639 32639 32639 32639 32639 42904 42904 32639 32639 32639 32639 32639 32639 32639 32639 32639 32639 32639 32639 32639 32639 32639 32639 32639 32639 32639 32639 32639 32639 32639 42904 42904 32639 32639 32639 32639 32639 32639 32639 32639 32639 32639 32639 32639 
29555 29555 29555 32639 32639 32639 32639 32639 32639 32639 32639 34689 49087 34689 32639 32639 32639 32639 32639 32639 32639 32639 32639 32639 32639 32639 32639 32639 32639 32639 32639 32639 32639 32639 32639 32639 34689 49087 34689 32639 32639 32639 32639 32639 32639 32639 32639 32639 32639 32639 
29555 29555 29555 32639 32639 32639 32639 32639 32639 32639 32639 32639 42904 42904 32639 32639 32639 32639 32639 32639 32639 32639 32639 32639 32639 32639 32639 32639 32639 32639 32639 32639 32639 32639 32639 32639 32639 42904 42904 32639 32639 32639 32639 32639 32639 32639 32639 32639 32639 32639 
29555 29555 29555 32639 32639 32639 32639 32639 32639 32639 32639 32639 34689 49087 34689 32639 32639 32639 32639 32639 32639 32639 32639 32639 32639 32639 32639 32639 32639 32639 32639 32639 32639 32639 32639 32639 32639 34689 49087 34689 32639 32639 32639 32639 32639 32639 32639 32639 32639 32639 
29555 29555 29555 32639 32639 32639 32639 32639 32639 32639 32639 32639 32639 42904 42904 32639 32639 32639 32639 32639 32639 32639 32639 32639 32639 32639 32639 32639 32639 32639 32639 32639 32639 32639 32639 32639 32639 32639 42904 42904 32639 32639 32639 32639 32639 32639 32639 32639 32639 32639 
29555 29555 29555 32639 32639 32639 32639 32639 32639 32639 32639 32639 32639 34689 49087 34689 32639 32639 32639 32639 32639 32639 32639 32639 32639 32639 32639 32639 32639 32639 32639 32639 32639 32639 32639 32639 32639 32639 34689 49087 34689 32639 32639 32639 32639 32639 32639 32639 32639 32639 
29555 29555 29555 32639 32639 32639 32639 32639 32639 32639 32639 32639 32639 32639 42904 42904 32639 32639 32639 32639 32639 32639 32639 32639 32639 32639 32639 32639 32639 32639 32639 32639 32639 32639 32639 32639 32639 32639 32639 42904 42904 32639 32639 32639 32639 32639 32639 32639 32639 32639 
29555 29555 29555 32639 32639 32639 32639 32639 32639 32639 32639 32639 32639 32639 34689 49087 34689 32639 32639 32639 32639 32639 32639 32639 32639 32639 32639 32639 32639 32639 32639 32639 32639 32639 32639 32639 32639 32639 32639 34689 49087 34689 32639 32639 32639 32639 32639 32639 32639 32639 
29555 29555 29555 32639 32639 32639 32639 32639 32639 32639 32639 32639 32639 32639 32639 42904 42904 32639 32639 32639 32639 32639 32639 32639 32639 32639 32639 32639 32639 32639 32639 32639 32639 32639 32639 32639 32639 32639 32639 32639 42904 42904 32639 32639 32639 32639 32639 32639 32639 32639 
29555 29555 29555 32639 32639 32639 32639 32639 32639 32639 32639 32639 32639 32639 32639 34689 49087 34689 32639 32639 32639 32639 32639 32639 32639 32639 32639 32639 32639 32639 32639 32639 32639 32639 32639 32639 32639 32639 32639 32639 34689 49087 34689 32639 32639 32639 32639 32639 32639 32639 
29555 29555 29555 32639 32639 32639 32639 32639 32639 32639 32639 32639 32639 32639 32639 32639 42904 42904 32639 32639 32639 32639 32639 32639 32639 32639 32639 32639 32639 32639 32639 32639 32639 32639 32639 32639 32639 32639 32639 32639 32639 42904 42904 32639 32639 32639 32639 32639 32639 32639 
29555 29555 29555 32639 32639 32639 32639 32639 32639 32639 32639 32639 32639 32639 32639 32639 34689 49087 34689 32639 32639 32639 32639 32639 32639 32639 32639 32639 32639 32639 32639 32639 32639 32639 32639 32639 32639 32639 32639 32639 32639 34689 49087 34689 32639 32639 32639 32639 32639 32639 
29555 29555 29555 32639 32639 32639 32639 32639 32639 32639 32639 32639 32639 32639 32639 32639 32639 42904 42904 32639 32639 32639 32639 32639 32639 32639 32639 32639 32639 32639 32639 32639 32639 32639 32639 32639 32639 32639 32639 32639 32639 32639 42904 42904 32639 32639 32639 32639 32639 32639 
29555 29555 29555 32639 32639 32639 32639 32639 32639 32639 32639 32639 32639 32639 32639 32639 32639 34689 49087 34689 32639 32639 32639 32639 32639 32639 32639 32639 32639 32639 32639 32639 32639 32639 32639 32639 32639 32639 32639 32639 32639 32639 34689 49087 34689 32639 32639 32639 32639 32639 
29555 29555 29555 32639 32639 32639 32639 32639 32639 32639 32639 32639 32639 32639 32639 32639 32639 32639 42904 42904 32639 32639 32639 32639 32639 32639 32639 32639 32639 32639 32639 32639 32639 32639 32639 32639 32639 32639 32639 32639 32639 32639 32639 42904 42904 32639 32639 32639 32639 32639 
29555 29555 29555 32639 32639 32639 32639 32639 32639 32639 32639 32639 32639 32639 32639 32639 32639 32639 34689 49087 34689 32639 32639 32639 32639 32639 32639 32639 32639 32639 32639 32639 32639 32639 32639 32639 32639 32639 32639 32639 32639 32639 32639 34689 49087 34689 32639 32639 32639 32639 
29555 29555 29555 32639 32639 32639 32639 32639 32639 32639 32639 32639 32639 32639 32639 32639 32639 32639 32639 42904 42904 32639 32639 32639 32639 32639 32639 32639 32639 32639 32639 32639 32639 32639 32639 32639 32639 32639 32639 32639 32639 32639 32639 32639 42904 42904 32639 32639 32639 32639 
29555 29555 29555 32639 32639 32639 32639 32639 32639 32639 32639 32639 32639 32639 32639 32639 32639 32639 32639 34689 49087 34689 32639 32639 32639 32639 32639 32639 32639 32639 32639 32639 32639 32639 32639 32639 32639 32639 32639 32639 32639 32639 32639 32639 34689 49087 34689 32639 32639 32639 
29555 29555 29555 32639 32639 32639 32639 32639 32639 32639 32639 32639 32639 32639 32639 32639 32639 32639 32639 32639 42904 42904 32639 32639 32639 32639 32639 32639 32639 32639 32639 32639 32639 32639 32639 32639 32639 32639 32639 32639 32639 32639 32639 32639 32639 42904 42904 32639 32639 32639 
29555 29555 29555 32639 32639 32639 32639 32639 32639 32639 32639 32639 32639 32639 32639 32639 32639 32639 32639 32639 34689 49087 34689 32639 32639 32639 32639 32639 32639 32639 32639 32639 32639 32639 32639 32639 32639 32639 32639 32639 32639 32639 32639 32639 32639 34689 49087 34689 32639 32639 
29555 29555 29555 32639 32639 32639 32639 32639 32639 32639 32639 32639 32639 32639 32639 32639 32639 32639 32639 32639 32639 42904 42904 32639 32639 32639 32639 32639 32639 32639 32639 32639 32639 32639 32639 32639 32639 32639 32639 32639 32639 32639 32639 32639 32639 32639 42904 42904 32639 32639 
29555 29555 29555 32639 32639 32639 32639 32639 32639 32639 32639 32639 32639 32639 32639 32639 32639 32639 32639 32639 32639 34689 49087 34689 32639 32639 32639 32639 32639 32639 32639 32639 32639 32639 32639 32639 32639 32639 32639 32639 32639 32639 32639 32639 32639 32639 34689 49087 34689 32639 
29555 29555 29555 32639 32639 32639 32639 32639 32639 32639 32639 32639 32639 32639 32639 32639 32639 32639 32639 32639 32639 32639 42904 42904 32639 32639 32639 32639 32639 32639 32639 32639 32639 32639 32639 32639 32639 32639 32639 32639 32639 32639 32639 32639 32639 32639 32639 42904 42904 32639 
29555 29555 29555 32639 32639 32639 32639 32639 32639 32639 32639 32639 32639 32639 32639 32639 32639 32639 32639 32639 32639 32639 34689 49087 34689 32639 32639 32639 32639 32639 32639 32639 32639 32639 32639 32639 32639 32639 32639 32639 32639 32639 32639 32639 32639 32639 32639 34689 49087 34689 
29555 29555 29555 32639 32639 32639 32639 32639 32639 32639 32639 32639 32639 32639 32639 32639 32639 32639 32639 32639 32639 32639 32639 42904 42904 32639 32639 32639 32639 32639 32639 32639 32639 32639 32639 32639 32639 32639 32639 32639 32639 32639 32639 32639 32639 32639 32639 32639 42904 42904 
29555 29555 29555 32639 32639 32639 32639 32639 32639 32639 32639 32639 32639 32639 32639 32639 32639 32639 32639 32639 32639 32639 32639 34689 49087 34689 32639 32639 32639 32639 32639 32639 32639 32639 32639 32639 32639 32639 32639 32639 32639 32639 32639 32639 32639 32639 32639 32639 34689 49087 
29555 29555 29555 32639 32639 32639 32639 32639 32639 32639 32639 32639 32639 32639 32639 32639 32639 32639 32639 32639 32639 32639 32639 32639 42904 42904 32639 32639 32639 32639 32639 32639 32639 32639 32639 32639 32639 32639 32639 32639 32639 32639 32639 32639 32639 32639 32639 32639 32639 42904 
